<?xml version="1.0" encoding="UTF-8" standalone="no"?>
<svg
   version="1.1"
   width="1280"
   height="640"
   id="svg22"
   sodipodi:docname="temp.svg"
   xmlns:inkscape="http://www.inkscape.org/namespaces/inkscape"
   xmlns:sodipodi="http://sodipodi.sourceforge.net/DTD/sodipodi-0.dtd"
   xmlns="http://www.w3.org/2000/svg"
   xmlns:svg="http://www.w3.org/2000/svg">
  <style>
    :root {
      --melange-text-fill:   #F1F1F1;
      --melange-text-stroke: #54433A;
      --melange-ring-fill:   #F1F1F1;
      --melange-line-fg: #54433A;
      --melange-red:     #C77B8B;
      --melange-orange:  #BC5C00;
      --melange-yellow:  #A06D00;
      --melange-green:   #6E9B72;
      --melange-cyan:    #739797;
      --melange-blue:    #7892BD;
      --melange-magenta: #BE79BB;
    }
    @media (prefers-color-scheme: dark) {
      :root {
        --melange-text-fill:   #ECE1D7;
        --melange-text-stroke: none;
        --melange-ring-fill:   #292522;
        --melange-line-fg: #ECE1D7;
        --melange-red:     #D47766;
        --melange-orange:  #E49B5D;
        --melange-yellow:  #EBC06D;
        --melange-green:   #85B695;
        --melange-cyan:    #89B3B6;
        --melange-blue:    #A3A9CE;
        --melange-magenta: #CF9BC2;
      }
    }
    .melange-text {
      fill:var(--melange-text-fill);
      stroke:var(--melange-text-stroke);
    }
    .melange-shape {
      stroke-width: 4;
      fill: var(--melange-ring-fill);
    }
  </style>
  <defs
     id="defs26" />
  <sodipodi:namedview
     id="namedview24"
     pagecolor="#ffffff"
     bordercolor="#000000"
     borderopacity="0.25"
     inkscape:showpageshadow="2"
     inkscape:pageopacity="0.0"
     inkscape:pagecheckerboard="0"
     inkscape:deskcolor="#d1d1d1" />
  <g
     aria-label="meλanʒe"
     id="text2"
     class="melange-text"
     style="font-style:italic;font-weight:bold;font-size:160px;font-family:'noto serif';text-anchor:middle;stroke-width:48;stroke-linejoin:round">
    <path
       d="m 407.2804,321.12 q -9.12,0 -14.08,-4.32 -4.96,-4.48 -4.96,-12.16 0,-3.36 0.64,-8.16 0.64,-4.8 1.92,-10.88 l 2.72,-12.64 q 0.64,-3.2 1.76,-8.48 1.12,-5.44 1.12,-9.44 0,-3.04 -1.28,-6.08 -1.12,-3.04 -5.12,-3.04 -3.84,0 -7.68,3.84 -3.68,3.68 -7.04,9.44 -3.2,5.76 -5.6,11.84 -2.24,6.08 -3.04,10.72 l -1.28,6.72 q -0.64,3.36 -1.6,9.28 -0.8,5.92 -1.6,12.16 -0.64,6.08 -0.96,10.08 h -24.8 q 0.32,-4.16 1.28,-10.72 0.96,-6.56 2.08,-13.28 1.28,-6.72 2.4,-11.68 l 2.4,-11.2 q 1.44,-6.88 2.08,-11.2 0.64,-4.48 0.64,-6.72 0,-2.88 -0.96,-5.76 -0.8,-3.04 -4.32,-3.04 -4,0 -7.84,3.52 -3.84,3.36 -7.2,8.8 -3.2,5.28 -5.6,11.04 -2.24,5.6 -3.2,10.08 l -8.96,40.16 h -24 l 13.44,-63.68 q 0.32,-1.44 0.64,-3.52 0.48,-2.24 0.48,-3.36 0,-4.32 -1.92,-5.44 -1.92,-1.28 -6.56,-1.28 h -2.88 l 1.44,-8.48 h 37.12 l -3.04,16.32 h 1.12 q 6.4,-9.76 13.44,-13.76 7.2,-4.16 16.64,-4.16 9.76,0 13.44,5.12 3.84,5.12 4.16,12.64 v 0.96 h 0.96 q 5.92,-9.6 12.96,-14.4 7.2,-4.8 17.44,-4.8 9.92,0 13.76,5.6 3.84,5.44 3.84,12.8 0,4.16 -1.12,9.12 -0.96,4.8 -1.76,8.96 l -3.68,17.12 q -0.96,4.32 -1.6,8.16 -0.64,3.84 -0.64,7.2 0,7.2 5.6,7.2 2.56,0 4.64,-0.96 2.08,-0.96 4.8,-2.72 l 3.84,5.44 q -3.84,4.16 -9.76,7.68 -5.92,3.36 -14.72,3.36 z"
       id="path28" />
    <path
       d="m 476.40037,321.6 q -9.76,0 -17.92,-3.52 -8,-3.68 -12.96,-11.04 -4.8,-7.36 -4.8,-18.56 0,-8.96 3.52,-18.72 3.52,-9.76 10.4,-18.08 6.88,-8.48 16.96,-13.76 10.08,-5.28 23.36,-5.28 11.36,0 17.76,4.96 6.4,4.96 6.4,13.92 0,8.64 -6.24,16 -6.08,7.36 -16.96,12 -10.72,4.48 -24.48,4.48 h -5.92 q -0.16,1.6 -0.32,3.2 0,1.6 0,2.88 0,9.28 4.32,14.4 4.32,4.96 13.12,4.96 7.84,0 13.92,-4 6.08,-4.16 9.44,-8.96 2.08,2.56 2.08,6.88 0,3.84 -3.36,8.16 -3.36,4.16 -10.4,7.2 -6.88,2.88 -17.92,2.88 z m -9.76,-46.72 h 1.44 q 7.84,0 14.24,-2.72 6.4,-2.72 10.08,-7.68 3.68,-5.12 3.68,-11.84 0,-4.96 -2.08,-7.68 -2.08,-2.72 -5.76,-2.72 -5.28,0 -9.76,4.96 -4.32,4.96 -7.52,12.48 -3.04,7.52 -4.32,15.2 z"
       id="path30" />
    <path
       d="m 516.24035,320 58.08,-87.68 q -0.96,-13.44 -4.16,-18.24 -3.04,-4.96 -9.44,-4.96 -4.64,0 -7.68,2.88 -3.04,2.88 -5.12,5.92 -3.36,-3.04 -3.36,-8.64 0,-5.44 4,-8.96 4.16,-3.52 12,-3.52 12.8,0 18.4,8.8 5.6,8.8 6.88,25.76 l 3.84,50.08 q 1.12,13.76 4.8,21.92 3.68,8.16 8.64,8.16 h 0.8 l -1.76,8.48 h -3.68 q -6.56,0 -11.2,-1.92 -4.48,-2.08 -6.88,-7.2 -2.24,-5.28 -2.72,-14.88 -0.32,-7.2 -0.64,-14.08 -0.16,-7.04 -0.32,-12.64 -0.16,-5.6 0,-8.48 h -0.64 q -1.12,2.56 -3.36,7.52 -2.24,4.96 -4.96,10.24 -2.56,5.12 -4.8,8.8 l -19.52,32.64 z"
       id="path32" />
    <path
       d="m 641.04025,321.6 q -7.52,0 -12.64,-3.84 -5.12,-3.84 -7.68,-10.4 -2.56,-6.72 -2.56,-15.04 0,-7.52 2.08,-15.68 2.08,-8.32 6.24,-16 4.16,-7.84 10.24,-14.08 6.08,-6.4 13.92,-10.08 8,-3.84 17.76,-3.84 6.24,0 12.48,1.76 6.4,1.76 10.08,3.84 l 8.48,-3.84 h 8.48 l -10.56,49.92 q -0.48,1.76 -1.12,4.96 -0.64,3.2 -1.12,6.56 -0.48,3.2 -0.48,5.28 0,4 1.44,5.92 1.6,1.92 4.16,1.92 2.24,0 4.32,-0.96 2.08,-0.96 4.64,-2.4 l 3.52,6.4 q -4,3.2 -10.4,6.4 -6.24,3.2 -14.88,3.2 -7.04,0 -11.36,-3.2 -4.32,-3.36 -4.32,-9.6 0,-4.64 1.12,-10.4 h -1.12 q -4,7.52 -8.16,12.64 -4,5.12 -9.44,7.84 -5.28,2.72 -13.12,2.72 z m 10.08,-12.8 q 3.52,0 7.2,-2.88 3.68,-3.04 7.04,-8 3.36,-5.12 5.92,-11.36 2.72,-6.24 4,-12.64 l 5.6,-26.56 q -1.6,-2.24 -4.32,-3.36 -2.72,-1.12 -5.92,-1.12 -5.6,0 -10.08,3.36 -4.48,3.36 -7.84,8.96 -3.36,5.6 -5.76,12.16 -2.24,6.56 -3.36,13.28 -1.12,6.56 -1.12,11.84 0,9.28 2.4,12.8 2.56,3.52 6.24,3.52 z"
       id="path34" />
    <path
       d="m 798.6401,321.6 q -9.12,0 -14.08,-4.32 -4.96,-4.48 -4.96,-12.16 0,-3.36 0.64,-8.16 0.64,-4.8 1.92,-10.88 l 2.56,-12.64 q 0.64,-3.04 1.76,-8.48 1.12,-5.44 1.12,-9.44 0,-3.04 -1.28,-6.08 -1.28,-3.04 -5.44,-3.04 -4.16,0 -8.16,3.84 -3.84,3.84 -7.2,9.76 -3.36,5.76 -5.92,12 -2.4,6.24 -3.36,10.88 l -8.16,37.12 h -24 l 13.44,-63.68 q 0.48,-2.08 0.8,-4.16 0.32,-2.08 0.32,-2.72 0,-4.32 -1.92,-5.44 -1.92,-1.28 -6.56,-1.28 h -2.88 l 1.44,-8.48 h 35.52 l -1.76,17.12 h 0.96 q 6.08,-9.6 13.28,-14.08 7.2,-4.64 17.92,-4.64 6.72,0 10.72,2.56 4,2.56 5.76,6.72 1.76,4.16 1.76,9.12 0,4 -1.12,8.96 -0.96,4.96 -1.76,9.12 l -3.52,17.12 q -0.96,4.32 -1.6,8.16 -0.64,3.84 -0.64,7.2 0,7.2 5.6,7.2 2.56,0 4.64,-0.96 2.08,-0.96 4.8,-2.72 l 3.84,5.44 q -3.84,4 -9.76,7.52 -5.92,3.52 -14.72,3.52 z"
       id="path36" />
    <path
       d="m 852.39993,358.4 q -11.36,0 -18.4,-2.56 -7.04,-2.56 -10.24,-6.72 -3.36,-4 -3.36,-8.48 0,-6.72 4.8,-9.76 4.8,-3.04 12.48,-3.04 0,5.28 0.96,10.24 1.12,4.96 4.48,8.16 3.36,3.36 10.08,3.36 11.2,0 18.72,-8.64 7.68,-8.48 7.68,-24.8 0,-12.64 -6.4,-17.92 -6.24,-5.44 -17.12,-5.44 h -6.08 l 1.12,-6.56 40.8,-35.04 h -28.8 q -5.92,0 -8.64,2.24 -2.72,2.24 -5.28,7.68 l -2.08,4.8 h -9.6 l 8,-31.68 h 69.12 l -2.56,12.16 -43.04,36.32 q 8.64,0.8 16.64,4.16 8,3.2 13.12,9.92 5.12,6.72 5.12,17.44 0,14.56 -6.56,24.32 -6.56,9.92 -18.24,14.88 -11.52,4.96 -26.72,4.96 z"
       id="path38" />
    <path
       d="m 957.19963,321.6 q -9.76,0 -17.92,-3.52 -8,-3.68 -12.96,-11.04 -4.8,-7.36 -4.8,-18.56 0,-8.96 3.52,-18.72 3.52,-9.76 10.4,-18.08 6.88,-8.48 16.96,-13.76 10.08,-5.28 23.36,-5.28 11.36,0 17.76,4.96 6.4,4.96 6.4,13.92 0,8.64 -6.24,16 -6.08,7.36 -16.96,12 -10.72,4.48 -24.48,4.48 h -5.92 q -0.16,1.6 -0.32,3.2 0,1.6 0,2.88 0,9.28 4.32,14.4 4.32,4.96 13.12,4.96 7.84,0 13.92,-4 6.08,-4.16 9.44,-8.96 2.08,2.56 2.08,6.88 0,3.84 -3.36,8.16 -3.36,4.16 -10.4,7.2 -6.88,2.88 -17.92,2.88 z m -9.76,-46.72 h 1.44 q 7.84,0 14.24,-2.72 6.4,-2.72 10.08,-7.68 3.68,-5.12 3.68,-11.84 0,-4.96 -2.08,-7.68 -2.08,-2.72 -5.76,-2.72 -5.28,0 -9.76,4.96 -4.32,4.96 -7.52,12.48 -3.04,7.52 -4.32,15.2 z"
       id="path40" />
  </g>
  <g
     aria-label="meλanʒe"
     id="text4"
     class="melange-text"
     style="font-style:italic;font-weight:bold;font-size:160px;font-family:'noto serif';text-anchor:middle;stroke-width:0;stroke-linejoin:round">
    <path
       d="m 407.2804,321.12 q -9.12,0 -14.08,-4.32 -4.96,-4.48 -4.96,-12.16 0,-3.36 0.64,-8.16 0.64,-4.8 1.92,-10.88 l 2.72,-12.64 q 0.64,-3.2 1.76,-8.48 1.12,-5.44 1.12,-9.44 0,-3.04 -1.28,-6.08 -1.12,-3.04 -5.12,-3.04 -3.84,0 -7.68,3.84 -3.68,3.68 -7.04,9.44 -3.2,5.76 -5.6,11.84 -2.24,6.08 -3.04,10.72 l -1.28,6.72 q -0.64,3.36 -1.6,9.28 -0.8,5.92 -1.6,12.16 -0.64,6.08 -0.96,10.08 h -24.8 q 0.32,-4.16 1.28,-10.72 0.96,-6.56 2.08,-13.28 1.28,-6.72 2.4,-11.68 l 2.4,-11.2 q 1.44,-6.88 2.08,-11.2 0.64,-4.48 0.64,-6.72 0,-2.88 -0.96,-5.76 -0.8,-3.04 -4.32,-3.04 -4,0 -7.84,3.52 -3.84,3.36 -7.2,8.8 -3.2,5.28 -5.6,11.04 -2.24,5.6 -3.2,10.08 l -8.96,40.16 h -24 l 13.44,-63.68 q 0.32,-1.44 0.64,-3.52 0.48,-2.24 0.48,-3.36 0,-4.32 -1.92,-5.44 -1.92,-1.28 -6.56,-1.28 h -2.88 l 1.44,-8.48 h 37.12 l -3.04,16.32 h 1.12 q 6.4,-9.76 13.44,-13.76 7.2,-4.16 16.64,-4.16 9.76,0 13.44,5.12 3.84,5.12 4.16,12.64 v 0.96 h 0.96 q 5.92,-9.6 12.96,-14.4 7.2,-4.8 17.44,-4.8 9.92,0 13.76,5.6 3.84,5.44 3.84,12.8 0,4.16 -1.12,9.12 -0.96,4.8 -1.76,8.96 l -3.68,17.12 q -0.96,4.32 -1.6,8.16 -0.64,3.84 -0.64,7.2 0,7.2 5.6,7.2 2.56,0 4.64,-0.96 2.08,-0.96 4.8,-2.72 l 3.84,5.44 q -3.84,4.16 -9.76,7.68 -5.92,3.36 -14.72,3.36 z"
       id="path43" />
    <path
       d="m 476.40037,321.6 q -9.76,0 -17.92,-3.52 -8,-3.68 -12.96,-11.04 -4.8,-7.36 -4.8,-18.56 0,-8.96 3.52,-18.72 3.52,-9.76 10.4,-18.08 6.88,-8.48 16.96,-13.76 10.08,-5.28 23.36,-5.28 11.36,0 17.76,4.96 6.4,4.96 6.4,13.92 0,8.64 -6.24,16 -6.08,7.36 -16.96,12 -10.72,4.48 -24.48,4.48 h -5.92 q -0.16,1.6 -0.32,3.2 0,1.6 0,2.88 0,9.28 4.32,14.4 4.32,4.96 13.12,4.96 7.84,0 13.92,-4 6.08,-4.16 9.44,-8.96 2.08,2.56 2.08,6.88 0,3.84 -3.36,8.16 -3.36,4.16 -10.4,7.2 -6.88,2.88 -17.92,2.88 z m -9.76,-46.72 h 1.44 q 7.84,0 14.24,-2.72 6.4,-2.72 10.08,-7.68 3.68,-5.12 3.68,-11.84 0,-4.96 -2.08,-7.68 -2.08,-2.72 -5.76,-2.72 -5.28,0 -9.76,4.96 -4.32,4.96 -7.52,12.48 -3.04,7.52 -4.32,15.2 z"
       id="path45" />
    <path
       d="m 516.24035,320 58.08,-87.68 q -0.96,-13.44 -4.16,-18.24 -3.04,-4.96 -9.44,-4.96 -4.64,0 -7.68,2.88 -3.04,2.88 -5.12,5.92 -3.36,-3.04 -3.36,-8.64 0,-5.44 4,-8.96 4.16,-3.52 12,-3.52 12.8,0 18.4,8.8 5.6,8.8 6.88,25.76 l 3.84,50.08 q 1.12,13.76 4.8,21.92 3.68,8.16 8.64,8.16 h 0.8 l -1.76,8.48 h -3.68 q -6.56,0 -11.2,-1.92 -4.48,-2.08 -6.88,-7.2 -2.24,-5.28 -2.72,-14.88 -0.32,-7.2 -0.64,-14.08 -0.16,-7.04 -0.32,-12.64 -0.16,-5.6 0,-8.48 h -0.64 q -1.12,2.56 -3.36,7.52 -2.24,4.96 -4.96,10.24 -2.56,5.12 -4.8,8.8 l -19.52,32.64 z"
       id="path47" />
    <path
       d="m 641.04025,321.6 q -7.52,0 -12.64,-3.84 -5.12,-3.84 -7.68,-10.4 -2.56,-6.72 -2.56,-15.04 0,-7.52 2.08,-15.68 2.08,-8.32 6.24,-16 4.16,-7.84 10.24,-14.08 6.08,-6.4 13.92,-10.08 8,-3.84 17.76,-3.84 6.24,0 12.48,1.76 6.4,1.76 10.08,3.84 l 8.48,-3.84 h 8.48 l -10.56,49.92 q -0.48,1.76 -1.12,4.96 -0.64,3.2 -1.12,6.56 -0.48,3.2 -0.48,5.28 0,4 1.44,5.92 1.6,1.92 4.16,1.92 2.24,0 4.32,-0.96 2.08,-0.96 4.64,-2.4 l 3.52,6.4 q -4,3.2 -10.4,6.4 -6.24,3.2 -14.88,3.2 -7.04,0 -11.36,-3.2 -4.32,-3.36 -4.32,-9.6 0,-4.64 1.12,-10.4 h -1.12 q -4,7.52 -8.16,12.64 -4,5.12 -9.44,7.84 -5.28,2.72 -13.12,2.72 z m 10.08,-12.8 q 3.52,0 7.2,-2.88 3.68,-3.04 7.04,-8 3.36,-5.12 5.92,-11.36 2.72,-6.24 4,-12.64 l 5.6,-26.56 q -1.6,-2.24 -4.32,-3.36 -2.72,-1.12 -5.92,-1.12 -5.6,0 -10.08,3.36 -4.48,3.36 -7.84,8.96 -3.36,5.6 -5.76,12.16 -2.24,6.56 -3.36,13.28 -1.12,6.56 -1.12,11.84 0,9.28 2.4,12.8 2.56,3.52 6.24,3.52 z"
       id="path49" />
    <path
       d="m 798.6401,321.6 q -9.12,0 -14.08,-4.32 -4.96,-4.48 -4.96,-12.16 0,-3.36 0.64,-8.16 0.64,-4.8 1.92,-10.88 l 2.56,-12.64 q 0.64,-3.04 1.76,-8.48 1.12,-5.44 1.12,-9.44 0,-3.04 -1.28,-6.08 -1.28,-3.04 -5.44,-3.04 -4.16,0 -8.16,3.84 -3.84,3.84 -7.2,9.76 -3.36,5.76 -5.92,12 -2.4,6.24 -3.36,10.88 l -8.16,37.12 h -24 l 13.44,-63.68 q 0.48,-2.08 0.8,-4.16 0.32,-2.08 0.32,-2.72 0,-4.32 -1.92,-5.44 -1.92,-1.28 -6.56,-1.28 h -2.88 l 1.44,-8.48 h 35.52 l -1.76,17.12 h 0.96 q 6.08,-9.6 13.28,-14.08 7.2,-4.64 17.92,-4.64 6.72,0 10.72,2.56 4,2.56 5.76,6.72 1.76,4.16 1.76,9.12 0,4 -1.12,8.96 -0.96,4.96 -1.76,9.12 l -3.52,17.12 q -0.96,4.32 -1.6,8.16 -0.64,3.84 -0.64,7.2 0,7.2 5.6,7.2 2.56,0 4.64,-0.96 2.08,-0.96 4.8,-2.72 l 3.84,5.44 q -3.84,4 -9.76,7.52 -5.92,3.52 -14.72,3.52 z"
       id="path51" />
    <path
       d="m 852.39993,358.4 q -11.36,0 -18.4,-2.56 -7.04,-2.56 -10.24,-6.72 -3.36,-4 -3.36,-8.48 0,-6.72 4.8,-9.76 4.8,-3.04 12.48,-3.04 0,5.28 0.96,10.24 1.12,4.96 4.48,8.16 3.36,3.36 10.08,3.36 11.2,0 18.72,-8.64 7.68,-8.48 7.68,-24.8 0,-12.64 -6.4,-17.92 -6.24,-5.44 -17.12,-5.44 h -6.08 l 1.12,-6.56 40.8,-35.04 h -28.8 q -5.92,0 -8.64,2.24 -2.72,2.24 -5.28,7.68 l -2.08,4.8 h -9.6 l 8,-31.68 h 69.12 l -2.56,12.16 -43.04,36.32 q 8.64,0.8 16.64,4.16 8,3.2 13.12,9.92 5.12,6.72 5.12,17.44 0,14.56 -6.56,24.32 -6.56,9.92 -18.24,14.88 -11.52,4.96 -26.72,4.96 z"
       id="path53" />
    <path
       d="m 957.19963,321.6 q -9.76,0 -17.92,-3.52 -8,-3.68 -12.96,-11.04 -4.8,-7.36 -4.8,-18.56 0,-8.96 3.52,-18.72 3.52,-9.76 10.4,-18.08 6.88,-8.48 16.96,-13.76 10.08,-5.28 23.36,-5.28 11.36,0 17.76,4.96 6.4,4.96 6.4,13.92 0,8.64 -6.24,16 -6.08,7.36 -16.96,12 -10.72,4.48 -24.48,4.48 h -5.92 q -0.16,1.6 -0.32,3.2 0,1.6 0,2.88 0,9.28 4.32,14.4 4.32,4.96 13.12,4.96 7.84,0 13.92,-4 6.08,-4.16 9.44,-8.96 2.08,2.56 2.08,6.88 0,3.84 -3.36,8.16 -3.36,4.16 -10.4,7.2 -6.88,2.88 -17.92,2.88 z m -9.76,-46.72 h 1.44 q 7.84,0 14.24,-2.72 6.4,-2.72 10.08,-7.68 3.68,-5.12 3.68,-11.84 0,-4.96 -2.08,-7.68 -2.08,-2.72 -5.76,-2.72 -5.28,0 -9.76,4.96 -4.32,4.96 -7.52,12.48 -3.04,7.52 -4.32,15.2 z"
       id="path55" />
  </g>
  <line
     x1="0"
     y1="426"
     x2="100%"
     y2="426"
     class="melange-shape"
     style="stroke:var(--melange-line-fg);"
     id="line6" />
  <circle
     r="25"
     cx="256.0"
     cy="426"
     class="melange-shape"
     style="stroke:var(--melange-blue);"
     id="circle8" />
  <circle
     r="25"
     cx="384.0"
     cy="426"
     class="melange-shape"
     style="stroke:var(--melange-red);"
     id="circle10" />
  <circle
     r="25"
     cx="512.0"
     cy="426"
     class="melange-shape"
     style="stroke:var(--melange-green);"
     id="circle12" />
  <circle
     r="25"
     cx="640.0"
     cy="426"
     class="melange-shape"
     style="stroke:var(--melange-yellow);"
     id="circle14" />
  <circle
     r="25"
     cx="768.0"
     cy="426"
     class="melange-shape"
     style="stroke:var(--melange-cyan);"
     id="circle16" />
  <circle
     r="25"
     cx="896.0"
     cy="426"
     class="melange-shape"
     style="stroke:var(--melange-orange);"
     id="circle18" />
  <circle
     r="25"
     cx="1024.0"
     cy="426"
     class="melange-shape"
     style="stroke:var(--melange-magenta);"
     id="circle20" />
</svg>
